<svg xmlns="http://www.w3.org/2000/svg" xmlns:xlink="http://www.w3.org/1999/xlink" width="40" zoomAndPan="magnify" viewBox="0 0 30 30.000001" height="40" preserveAspectRatio="xMidYMid meet" version="1.2"><defs><clipPath id="714d1ae856"><path d="M 2 0 L 28 0 L 28 29.03125 L 2 29.03125 Z M 2 0 "/></clipPath></defs><g id="de25091dd0"><g clip-rule="nonzero" clip-path="url(#714d1ae856)"><path style=" stroke:none;fill-rule:evenodd;fill:#32447e;fill-opacity:1;" d="M 11.3125 26.933594 L 5.019531 23.25 L 2.410156 21.773438 L 2.410156 7.257812 L 5.132812 5.671875 L 11.484375 2.042969 L 15 0 L 18.515625 2.042969 L 24.867188 5.671875 L 27.589844 7.257812 L 27.589844 21.773438 L 24.980469 23.25 L 18.6875 26.933594 L 15 29.03125 Z M 11.3125 26.933594 "/></g><path style=" stroke:none;fill-rule:evenodd;fill:#2d3d71;fill-opacity:1;" d="M 3.828125 7.769531 L 14.714844 1.472656 C 14.886719 1.359375 15.113281 1.359375 15.285156 1.472656 L 26.171875 7.769531 C 26.339844 7.882812 26.453125 8.050781 26.453125 8.277344 L 26.453125 20.753906 C 26.453125 20.980469 26.339844 21.152344 26.171875 21.265625 L 15.285156 27.558594 C 15.113281 27.671875 14.886719 27.671875 14.714844 27.558594 L 3.828125 21.265625 C 3.660156 21.152344 3.546875 20.980469 3.546875 20.753906 L 3.546875 8.277344 C 3.546875 8.050781 3.660156 7.882812 3.828125 7.769531 Z M 3.828125 7.769531 "/><path style=" stroke:none;fill-rule:evenodd;fill:#374c81;fill-opacity:1;" d="M 12.335938 3.515625 L 6.039062 7.203125 L 4.167969 8.277344 L 4.167969 20.753906 L 5.871094 21.773438 L 12.222656 25.402344 L 15 27.046875 L 17.777344 25.402344 L 24.128906 21.773438 L 25.832031 20.753906 L 25.832031 8.277344 L 23.960938 7.203125 L 17.664062 3.515625 L 15 1.984375 Z M 12.335938 3.515625 "/><path style=" stroke:none;fill-rule:evenodd;fill:#4b5e8e;fill-opacity:1;" d="M 4.167969 20.808594 L 5.871094 21.773438 L 9.785156 24.042969 L 20.671875 5.273438 L 17.664062 3.515625 L 15.058594 1.984375 Z M 4.167969 20.808594 "/><path style=" stroke:none;fill-rule:evenodd;fill:#4b5e8e;fill-opacity:1;" d="M 12.164062 25.402344 L 12.222656 25.402344 L 14.941406 27.046875 L 25.832031 8.222656 L 23.960938 7.203125 L 22.996094 6.632812 Z M 12.164062 25.402344 "/><path style=" stroke:none;fill-rule:evenodd;fill:#e3e3e3;fill-opacity:1;" d="M 2.410156 11.113281 L 4.167969 11.113281 C 4.625 11.113281 5.019531 11.511719 5.019531 11.964844 L 5.019531 17.578125 C 5.019531 18.03125 4.625 18.429688 4.167969 18.429688 L 2.410156 18.429688 C 1.957031 18.429688 1.5625 18.03125 1.5625 17.578125 L 1.5625 11.964844 C 1.5625 11.511719 1.957031 11.113281 2.410156 11.113281 Z M 2.410156 11.113281 "/><path style=" stroke:none;fill-rule:evenodd;fill:#e3e3e3;fill-opacity:1;" d="M 25.832031 11.113281 L 27.589844 11.113281 C 28.042969 11.113281 28.4375 11.511719 28.4375 11.964844 L 28.4375 17.578125 C 28.4375 18.03125 28.042969 18.429688 27.589844 18.429688 L 25.832031 18.429688 C 25.375 18.429688 24.980469 18.03125 24.980469 17.578125 L 24.980469 11.964844 C 24.980469 11.511719 25.375 11.113281 25.832031 11.113281 Z M 25.832031 11.113281 "/><path style=" stroke:none;fill-rule:evenodd;fill:#e3e3e3;fill-opacity:1;" d="M 17.722656 3.457031 L 18.574219 1.929688 C 18.800781 1.53125 19.367188 1.417969 19.761719 1.644531 L 24.582031 4.421875 C 24.980469 4.648438 25.148438 5.160156 24.921875 5.613281 L 24.074219 7.089844 C 23.789062 7.484375 23.277344 7.65625 22.882812 7.429688 L 18.0625 4.59375 C 17.609375 4.367188 17.496094 3.855469 17.722656 3.457031 Z M 17.722656 3.457031 "/><path style=" stroke:none;fill-rule:evenodd;fill:#e3e3e3;fill-opacity:1;" d="M 12.277344 3.457031 L 11.425781 1.929688 C 11.199219 1.53125 10.632812 1.417969 10.238281 1.644531 L 5.417969 4.421875 C 5.019531 4.648438 4.851562 5.160156 5.078125 5.613281 L 5.925781 7.089844 C 6.210938 7.484375 6.722656 7.65625 7.117188 7.429688 L 11.9375 4.59375 C 12.390625 4.367188 12.503906 3.855469 12.277344 3.457031 Z M 12.277344 3.457031 "/><path style=" stroke:none;fill-rule:evenodd;fill:#e3e3e3;fill-opacity:1;" d="M 17.722656 25.289062 L 18.574219 26.765625 C 18.800781 27.160156 19.367188 27.332031 19.761719 27.105469 L 24.582031 24.324219 C 24.980469 24.042969 25.148438 23.53125 24.921875 23.136719 L 24.074219 21.660156 C 23.789062 21.207031 23.277344 21.09375 22.882812 21.320312 L 18.0625 24.097656 C 17.609375 24.324219 17.496094 24.894531 17.722656 25.289062 Z M 17.722656 25.289062 "/><path style=" stroke:none;fill-rule:evenodd;fill:#e3e3e3;fill-opacity:1;" d="M 12.277344 25.289062 L 11.425781 26.765625 C 11.199219 27.160156 10.632812 27.332031 10.238281 27.105469 L 5.417969 24.324219 C 5.019531 24.042969 4.851562 23.53125 5.078125 23.136719 L 5.925781 21.660156 C 6.210938 21.207031 6.722656 21.09375 7.117188 21.320312 L 11.9375 24.097656 C 12.390625 24.324219 12.503906 24.894531 12.277344 25.289062 Z M 12.277344 25.289062 "/><path style=" stroke:none;fill-rule:evenodd;fill:#cccccc;fill-opacity:1;" d="M 2.921875 13.210938 C 2.921875 13.042969 3.09375 12.871094 3.261719 12.871094 C 3.488281 12.871094 3.660156 13.042969 3.660156 13.210938 L 3.660156 16.332031 C 3.660156 16.558594 3.488281 16.671875 3.261719 16.671875 C 3.09375 16.671875 2.921875 16.558594 2.921875 16.332031 Z M 2.921875 13.210938 "/><path style=" stroke:none;fill-rule:evenodd;fill:#cccccc;fill-opacity:1;" d="M 26.339844 13.210938 C 26.339844 13.042969 26.511719 12.871094 26.738281 12.871094 C 26.90625 12.871094 27.078125 13.042969 27.078125 13.210938 L 27.078125 16.332031 C 27.078125 16.558594 26.90625 16.671875 26.738281 16.671875 C 26.511719 16.671875 26.339844 16.558594 26.339844 16.332031 Z M 26.339844 13.210938 "/><path style=" stroke:none;fill-rule:evenodd;fill:#e9e9e9;fill-opacity:1;" d="M 5.53125 6.351562 L 11.824219 2.664062 L 11.484375 2.042969 L 11.425781 1.929688 C 11.199219 1.53125 10.632812 1.417969 10.238281 1.644531 L 5.417969 4.421875 C 5.019531 4.648438 4.851562 5.160156 5.078125 5.613281 L 5.132812 5.671875 Z M 5.53125 6.351562 "/><path style=" stroke:none;fill-rule:evenodd;fill:#e9e9e9;fill-opacity:1;" d="M 24.46875 6.351562 L 18.175781 2.664062 L 18.515625 2.042969 L 18.574219 1.929688 C 18.800781 1.53125 19.367188 1.417969 19.761719 1.644531 L 24.582031 4.421875 C 24.980469 4.648438 25.148438 5.160156 24.921875 5.613281 L 24.867188 5.671875 Z M 24.46875 6.351562 "/><path style=" stroke:none;fill-rule:evenodd;fill:#e9e9e9;fill-opacity:1;" d="M 5.53125 22.398438 L 11.824219 26.027344 L 11.484375 26.707031 L 11.425781 26.765625 C 11.199219 27.160156 10.632812 27.332031 10.238281 27.105469 L 5.417969 24.324219 C 5.019531 24.042969 4.851562 23.53125 5.078125 23.136719 L 5.132812 23.023438 Z M 5.53125 22.398438 "/><path style=" stroke:none;fill-rule:evenodd;fill:#e9e9e9;fill-opacity:1;" d="M 24.46875 22.398438 L 18.175781 26.027344 L 18.515625 26.707031 L 18.574219 26.765625 C 18.800781 27.160156 19.367188 27.332031 19.761719 27.105469 L 24.582031 24.324219 C 24.980469 24.042969 25.148438 23.53125 24.921875 23.136719 L 24.867188 23.023438 Z M 24.46875 22.398438 "/><path style=" stroke:none;fill-rule:evenodd;fill:#ffffff;fill-opacity:1;" d="M 15.339844 16.21875 C 14.546875 16.21875 13.921875 15.59375 13.921875 14.855469 L 13.921875 14.003906 C 13.921875 13.210938 14.546875 12.644531 15.339844 12.644531 C 16.078125 12.644531 16.699219 13.210938 16.699219 14.003906 L 16.699219 14.855469 C 16.699219 15.59375 16.078125 16.21875 15.339844 16.21875 Z M 15.339844 13.324219 C 14.941406 13.324219 14.601562 13.609375 14.601562 14.003906 L 14.601562 14.855469 C 14.601562 15.195312 14.941406 15.535156 15.339844 15.535156 C 15.679688 15.535156 16.019531 15.195312 16.019531 14.855469 L 16.019531 14.003906 C 16.078125 13.609375 15.738281 13.324219 15.339844 13.324219 Z M 15.339844 13.324219 "/><path style=" stroke:none;fill-rule:evenodd;fill:#ffffff;fill-opacity:1;" d="M 17.890625 16.21875 C 17.722656 16.21875 17.550781 16.105469 17.550781 15.878906 L 17.550781 12.984375 C 17.550781 12.757812 17.722656 12.644531 17.890625 12.644531 C 18.0625 12.644531 18.230469 12.757812 18.230469 12.984375 L 18.230469 15.933594 C 18.230469 16.105469 18.0625 16.21875 17.890625 16.21875 Z M 17.890625 16.21875 "/><path style=" stroke:none;fill-rule:evenodd;fill:#ffffff;fill-opacity:1;" d="M 19.875 16.21875 C 19.707031 16.21875 19.59375 16.105469 19.59375 15.878906 L 19.59375 12.984375 C 19.59375 12.757812 19.707031 12.644531 19.875 12.644531 C 20.101562 12.644531 20.214844 12.757812 20.214844 12.984375 L 20.214844 15.933594 C 20.214844 16.105469 20.101562 16.21875 19.875 16.21875 Z M 19.875 16.21875 "/><path style=" stroke:none;fill-rule:evenodd;fill:#ffffff;fill-opacity:1;" d="M 19.875 14.742188 L 17.890625 14.742188 C 17.722656 14.742188 17.550781 14.628906 17.550781 14.460938 C 17.550781 14.234375 17.722656 14.121094 17.890625 14.121094 L 19.875 14.121094 C 20.101562 14.121094 20.214844 14.234375 20.214844 14.460938 C 20.214844 14.628906 20.101562 14.742188 19.875 14.742188 Z M 19.875 14.742188 "/><path style=" stroke:none;fill-rule:evenodd;fill:#ffffff;fill-opacity:1;" d="M 13.242188 16.21875 C 13.128906 16.21875 13.015625 16.160156 12.957031 16.105469 C 12.5625 15.59375 12.335938 14.914062 12.335938 14.234375 C 12.335938 13.550781 12.503906 12.929688 12.957031 12.363281 C 13.070312 12.191406 13.300781 12.191406 13.414062 12.304688 C 13.582031 12.417969 13.582031 12.644531 13.527344 12.757812 C 13.183594 13.210938 13.015625 13.722656 13.015625 14.234375 C 13.015625 14.742188 13.183594 15.308594 13.527344 15.707031 C 13.640625 15.820312 13.582031 16.046875 13.414062 16.160156 C 13.355469 16.21875 13.300781 16.21875 13.242188 16.21875 Z M 13.242188 16.21875 "/><path style=" stroke:none;fill-rule:evenodd;fill:#ffffff;fill-opacity:1;" d="M 20.953125 16.21875 C 20.898438 16.21875 20.839844 16.21875 20.726562 16.160156 C 20.613281 16.046875 20.558594 15.820312 20.671875 15.707031 C 21.011719 15.253906 21.179688 14.742188 21.179688 14.234375 C 21.179688 13.722656 21.011719 13.210938 20.671875 12.816406 C 20.558594 12.644531 20.613281 12.476562 20.726562 12.363281 C 20.898438 12.191406 21.125 12.246094 21.238281 12.417969 C 21.632812 12.929688 21.859375 13.609375 21.859375 14.234375 C 21.859375 14.914062 21.632812 15.59375 21.238281 16.105469 C 21.179688 16.160156 21.066406 16.21875 20.953125 16.21875 Z M 20.953125 16.21875 "/><path style=" stroke:none;fill-rule:evenodd;fill:#ffffff;fill-opacity:1;" d="M 7.910156 16.21875 C 7.117188 16.21875 6.4375 15.59375 6.4375 14.742188 L 6.4375 14.0625 C 6.4375 13.269531 7.117188 12.589844 7.910156 12.589844 C 8.59375 12.589844 9.160156 13.042969 9.328125 13.664062 C 9.386719 13.835938 9.273438 14.0625 9.101562 14.0625 C 8.875 14.121094 8.707031 14.0625 8.648438 13.835938 C 8.535156 13.496094 8.253906 13.269531 7.910156 13.269531 C 7.457031 13.269531 7.117188 13.609375 7.117188 14.0625 L 7.117188 14.742188 C 7.117188 15.195312 7.457031 15.535156 7.910156 15.535156 C 8.253906 15.535156 8.535156 15.308594 8.648438 14.96875 C 8.707031 14.800781 8.875 14.6875 9.101562 14.742188 C 9.273438 14.800781 9.386719 14.96875 9.328125 15.195312 C 9.101562 15.820312 8.535156 16.21875 7.910156 16.21875 Z M 7.910156 16.21875 "/><path style=" stroke:none;fill-rule:evenodd;fill:#ffffff;fill-opacity:1;" d="M 11.371094 16.21875 C 11.144531 16.21875 11.03125 16.105469 11.03125 15.878906 L 11.03125 14.289062 C 11.03125 14.121094 10.859375 14.003906 10.691406 14.003906 L 10.519531 14.003906 C 10.519531 14.003906 10.464844 14.003906 10.40625 14.0625 C 10.351562 14.234375 10.179688 14.347656 9.953125 14.234375 C 9.839844 14.175781 9.726562 14.003906 9.785156 13.777344 C 9.898438 13.496094 10.179688 13.324219 10.519531 13.324219 L 10.691406 13.324219 C 11.257812 13.324219 11.65625 13.777344 11.65625 14.289062 L 11.65625 15.878906 C 11.65625 16.105469 11.542969 16.21875 11.371094 16.21875 Z M 11.371094 16.21875 "/><path style=" stroke:none;fill-rule:evenodd;fill:#ffffff;fill-opacity:1;" d="M 10.691406 16.21875 C 10.179688 16.21875 9.726562 15.761719 9.726562 15.253906 C 9.726562 14.6875 10.125 14.234375 10.691406 14.234375 C 11.257812 14.234375 11.710938 14.6875 11.710938 15.253906 C 11.65625 15.820312 11.257812 16.21875 10.691406 16.21875 Z M 10.691406 14.914062 C 10.519531 14.914062 10.40625 15.082031 10.40625 15.253906 C 10.40625 15.421875 10.519531 15.59375 10.691406 15.59375 C 10.859375 15.59375 11.03125 15.421875 11.03125 15.253906 C 11.03125 15.082031 10.859375 14.914062 10.691406 14.914062 Z M 10.691406 14.914062 "/><path style=" stroke:none;fill-rule:evenodd;fill:#ffffff;fill-opacity:1;" d="M 23.222656 17.863281 L 21.859375 17.863281 C 21.691406 17.863281 21.578125 17.804688 21.519531 17.636719 C 21.464844 17.519531 21.519531 17.351562 21.578125 17.292969 L 22.65625 16.386719 C 22.710938 16.332031 22.769531 16.21875 22.769531 16.160156 C 22.769531 15.992188 22.597656 15.820312 22.429688 15.820312 C 22.316406 15.820312 22.203125 15.878906 22.144531 15.992188 C 22.03125 16.160156 21.804688 16.160156 21.632812 16.105469 C 21.464844 15.992188 21.464844 15.761719 21.578125 15.59375 C 21.746094 15.308594 22.089844 15.140625 22.429688 15.140625 C 22.996094 15.140625 23.449219 15.59375 23.449219 16.160156 C 23.449219 16.445312 23.335938 16.671875 23.164062 16.898438 L 22.769531 17.179688 L 23.222656 17.179688 C 23.390625 17.179688 23.5625 17.351562 23.5625 17.519531 C 23.5625 17.75 23.390625 17.863281 23.222656 17.863281 Z M 23.222656 17.863281 "/></g></svg>