<!DOCTYPE svg PUBLIC "-//W3C//DTD SVG 1.1//EN" "http://www.w3.org/Graphics/SVG/1.1/DTD/svg11.dtd">
<!-- Uploaded to: SVG Repo, www.svgrepo.com, Transformed by: SVG Repo Mixer Tools -->
<svg fill="#c2ffd1" height="800px" width="800px" version="1.1" id="Layer_1" xmlns="http://www.w3.org/2000/svg" xmlns:xlink="http://www.w3.org/1999/xlink" viewBox="0 0 511.922 511.922" xml:space="preserve" stroke="#c2ffd1">
<g id="SVGRepo_bgCarrier" stroke-width="0"/>
<g id="SVGRepo_tracerCarrier" stroke-linecap="round" stroke-linejoin="round"/>
<g id="SVGRepo_iconCarrier"> <g> <g> <g> <path d="M418.093,238.932H93.826v170.667h324.267V238.932z M296.578,329.82l-51.2,59.733c-1.69,1.963-4.079,2.978-6.485,2.978 c-1.971,0-3.942-0.674-5.555-2.057c-3.575-3.063-3.985-8.457-0.922-12.032l39.125-45.645h-49.715 c-3.328,0-6.357-1.946-7.748-4.966c-1.391-3.029-0.896-6.596,1.271-9.122l51.2-59.733c3.072-3.567,8.457-3.994,12.032-0.922 c3.584,3.063,3.994,8.448,0.93,12.032l-39.125,45.645h49.707c3.337,0,6.357,1.937,7.757,4.966 C299.241,323.727,298.737,327.286,296.578,329.82z"/> <path d="M358.362,137.071v-17.51l25.464,0.026h0.009c14.182,0,25.728-11.537,25.728-25.719v-8.422l-51.217-0.111 c-4.71-0.009-8.525-3.84-8.516-8.55c0.009-4.71,3.831-8.516,8.533-8.516h0.017l51.183,0.111V51.354L307.154,51.2 c-4.719-0.009-8.533-3.831-8.525-8.55c0.009-4.71,3.823-8.516,8.533-8.516h0.008l102.391,0.154v-8.286 c0-14.191-11.546-25.728-25.719-25.728L128.09,0c-14.182,0-25.728,11.537-25.728,25.719v8.414h51.2 c4.71,0,8.533,3.814,8.533,8.533c0,4.71-3.823,8.533-8.533,8.533h-51.2v17.067h102.4c4.71,0,8.533,3.814,8.533,8.533 c0,4.71-3.823,8.533-8.533,8.533h-102.4v8.252c0,14.191,11.546,25.728,25.719,25.728l25.481,0.026v17.732 c-33.63,4.284-59.733,33.024-59.733,67.806v16.99h324.267v-16.99C418.095,170.095,391.992,141.355,358.362,137.071z M341.295,136.38H170.629v-17.015l170.667,0.179V136.38z"/> <path d="M93.829,443.501c0,37.726,30.694,68.42,68.42,68.42h187.426c37.726,0,68.42-30.694,68.42-68.42v-16.836H93.829V443.501z"/> </g> </g> </g> </g>
</svg>