<svg xmlns="http://www.w3.org/2000/svg" xmlns:xlink="http://www.w3.org/1999/xlink" width="40" zoomAndPan="magnify" viewBox="0 0 30 30.000001" height="40" preserveAspectRatio="xMidYMid meet" version="1.2"><defs><clipPath id="bea4ee080e"><path d="M 2 0 L 28 0 L 28 29.03125 L 2 29.03125 Z M 2 0 "/></clipPath></defs><g id="227133e45d"><g clip-rule="nonzero" clip-path="url(#bea4ee080e)"><path style=" stroke:none;fill-rule:evenodd;fill:#32447e;fill-opacity:1;" d="M 11.3125 26.933594 L 5.019531 23.25 L 2.410156 21.773438 L 2.410156 7.257812 L 5.132812 5.671875 L 11.484375 2.042969 L 15 0 L 18.515625 2.042969 L 24.867188 5.671875 L 27.589844 7.257812 L 27.589844 21.773438 L 24.980469 23.25 L 18.6875 26.933594 L 15 29.03125 Z M 11.3125 26.933594 "/></g><path style=" stroke:none;fill-rule:evenodd;fill:#2d3d71;fill-opacity:1;" d="M 3.828125 7.769531 L 14.714844 1.472656 C 14.886719 1.359375 15.113281 1.359375 15.285156 1.472656 L 26.171875 7.769531 C 26.339844 7.882812 26.453125 8.050781 26.453125 8.277344 L 26.453125 20.753906 C 26.453125 20.980469 26.339844 21.152344 26.171875 21.265625 L 15.285156 27.558594 C 15.113281 27.671875 14.886719 27.671875 14.714844 27.558594 L 3.828125 21.265625 C 3.660156 21.152344 3.546875 20.980469 3.546875 20.753906 L 3.546875 8.277344 C 3.546875 8.050781 3.660156 7.882812 3.828125 7.769531 Z M 3.828125 7.769531 "/><path style=" stroke:none;fill-rule:evenodd;fill:#374c81;fill-opacity:1;" d="M 12.335938 3.515625 L 6.039062 7.203125 L 4.167969 8.277344 L 4.167969 20.753906 L 5.871094 21.773438 L 12.222656 25.402344 L 15 27.046875 L 17.777344 25.402344 L 24.128906 21.773438 L 25.832031 20.753906 L 25.832031 8.277344 L 23.960938 7.203125 L 17.664062 3.515625 L 15 1.984375 Z M 12.335938 3.515625 "/><path style=" stroke:none;fill-rule:evenodd;fill:#4b5e8e;fill-opacity:1;" d="M 4.167969 20.808594 L 5.871094 21.773438 L 9.785156 24.042969 L 20.671875 5.273438 L 17.664062 3.515625 L 15.058594 1.984375 Z M 4.167969 20.808594 "/><path style=" stroke:none;fill-rule:evenodd;fill:#4b5e8e;fill-opacity:1;" d="M 12.164062 25.402344 L 12.222656 25.402344 L 14.941406 27.046875 L 25.832031 8.222656 L 23.960938 7.203125 L 22.996094 6.632812 Z M 12.164062 25.402344 "/><path style=" stroke:none;fill-rule:evenodd;fill:#e3e3e3;fill-opacity:1;" d="M 2.410156 11.113281 L 4.167969 11.113281 C 4.625 11.113281 5.019531 11.511719 5.019531 11.964844 L 5.019531 17.578125 C 5.019531 18.03125 4.625 18.429688 4.167969 18.429688 L 2.410156 18.429688 C 1.957031 18.429688 1.5625 18.03125 1.5625 17.578125 L 1.5625 11.964844 C 1.5625 11.511719 1.957031 11.113281 2.410156 11.113281 Z M 2.410156 11.113281 "/><path style=" stroke:none;fill-rule:evenodd;fill:#e3e3e3;fill-opacity:1;" d="M 25.832031 11.113281 L 27.589844 11.113281 C 28.042969 11.113281 28.4375 11.511719 28.4375 11.964844 L 28.4375 17.578125 C 28.4375 18.03125 28.042969 18.429688 27.589844 18.429688 L 25.832031 18.429688 C 25.375 18.429688 24.980469 18.03125 24.980469 17.578125 L 24.980469 11.964844 C 24.980469 11.511719 25.375 11.113281 25.832031 11.113281 Z M 25.832031 11.113281 "/><path style=" stroke:none;fill-rule:evenodd;fill:#e3e3e3;fill-opacity:1;" d="M 17.722656 3.457031 L 18.574219 1.929688 C 18.800781 1.53125 19.367188 1.417969 19.761719 1.644531 L 24.582031 4.421875 C 24.980469 4.648438 25.148438 5.160156 24.921875 5.613281 L 24.074219 7.089844 C 23.789062 7.484375 23.277344 7.65625 22.882812 7.429688 L 18.0625 4.59375 C 17.609375 4.367188 17.496094 3.855469 17.722656 3.457031 Z M 17.722656 3.457031 "/><path style=" stroke:none;fill-rule:evenodd;fill:#e3e3e3;fill-opacity:1;" d="M 12.277344 3.457031 L 11.425781 1.929688 C 11.199219 1.53125 10.632812 1.417969 10.238281 1.644531 L 5.417969 4.421875 C 5.019531 4.648438 4.851562 5.160156 5.078125 5.613281 L 5.925781 7.089844 C 6.210938 7.484375 6.722656 7.65625 7.117188 7.429688 L 11.9375 4.59375 C 12.390625 4.367188 12.503906 3.855469 12.277344 3.457031 Z M 12.277344 3.457031 "/><path style=" stroke:none;fill-rule:evenodd;fill:#e3e3e3;fill-opacity:1;" d="M 17.722656 25.289062 L 18.574219 26.765625 C 18.800781 27.160156 19.367188 27.332031 19.761719 27.105469 L 24.582031 24.324219 C 24.980469 24.042969 25.148438 23.53125 24.921875 23.136719 L 24.074219 21.660156 C 23.789062 21.207031 23.277344 21.09375 22.882812 21.320312 L 18.0625 24.097656 C 17.609375 24.324219 17.496094 24.894531 17.722656 25.289062 Z M 17.722656 25.289062 "/><path style=" stroke:none;fill-rule:evenodd;fill:#e3e3e3;fill-opacity:1;" d="M 12.277344 25.289062 L 11.425781 26.765625 C 11.199219 27.160156 10.632812 27.332031 10.238281 27.105469 L 5.417969 24.324219 C 5.019531 24.042969 4.851562 23.53125 5.078125 23.136719 L 5.925781 21.660156 C 6.210938 21.207031 6.722656 21.09375 7.117188 21.320312 L 11.9375 24.097656 C 12.390625 24.324219 12.503906 24.894531 12.277344 25.289062 Z M 12.277344 25.289062 "/><path style=" stroke:none;fill-rule:evenodd;fill:#cccccc;fill-opacity:1;" d="M 2.921875 13.210938 C 2.921875 13.042969 3.09375 12.871094 3.261719 12.871094 C 3.488281 12.871094 3.660156 13.042969 3.660156 13.210938 L 3.660156 16.332031 C 3.660156 16.558594 3.488281 16.671875 3.261719 16.671875 C 3.09375 16.671875 2.921875 16.558594 2.921875 16.332031 Z M 2.921875 13.210938 "/><path style=" stroke:none;fill-rule:evenodd;fill:#cccccc;fill-opacity:1;" d="M 26.339844 13.210938 C 26.339844 13.042969 26.511719 12.871094 26.738281 12.871094 C 26.90625 12.871094 27.078125 13.042969 27.078125 13.210938 L 27.078125 16.332031 C 27.078125 16.558594 26.90625 16.671875 26.738281 16.671875 C 26.511719 16.671875 26.339844 16.558594 26.339844 16.332031 Z M 26.339844 13.210938 "/><path style=" stroke:none;fill-rule:evenodd;fill:#e9e9e9;fill-opacity:1;" d="M 5.53125 6.351562 L 11.824219 2.664062 L 11.484375 2.042969 L 11.425781 1.929688 C 11.199219 1.53125 10.632812 1.417969 10.238281 1.644531 L 5.417969 4.421875 C 5.019531 4.648438 4.851562 5.160156 5.078125 5.613281 L 5.132812 5.671875 Z M 5.53125 6.351562 "/><path style=" stroke:none;fill-rule:evenodd;fill:#e9e9e9;fill-opacity:1;" d="M 24.46875 6.351562 L 18.175781 2.664062 L 18.515625 2.042969 L 18.574219 1.929688 C 18.800781 1.53125 19.367188 1.417969 19.761719 1.644531 L 24.582031 4.421875 C 24.980469 4.648438 25.148438 5.160156 24.921875 5.613281 L 24.867188 5.671875 Z M 24.46875 6.351562 "/><path style=" stroke:none;fill-rule:evenodd;fill:#e9e9e9;fill-opacity:1;" d="M 5.53125 22.398438 L 11.824219 26.027344 L 11.484375 26.707031 L 11.425781 26.765625 C 11.199219 27.160156 10.632812 27.332031 10.238281 27.105469 L 5.417969 24.324219 C 5.019531 24.042969 4.851562 23.53125 5.078125 23.136719 L 5.132812 23.023438 Z M 5.53125 22.398438 "/><path style=" stroke:none;fill-rule:evenodd;fill:#e9e9e9;fill-opacity:1;" d="M 24.46875 22.398438 L 18.175781 26.027344 L 18.515625 26.707031 L 18.574219 26.765625 C 18.800781 27.160156 19.367188 27.332031 19.761719 27.105469 L 24.582031 24.324219 C 24.980469 24.042969 25.148438 23.53125 24.921875 23.136719 L 24.867188 23.023438 Z M 24.46875 22.398438 "/><path style=" stroke:none;fill-rule:evenodd;fill:#ffffff;fill-opacity:1;" d="M 16.078125 16.21875 C 15.285156 16.21875 14.660156 15.59375 14.660156 14.855469 L 14.660156 14.0625 C 14.660156 13.324219 15.285156 12.703125 16.078125 12.703125 C 16.757812 12.703125 17.382812 13.324219 17.382812 14.0625 L 17.382812 14.855469 C 17.382812 15.59375 16.816406 16.21875 16.078125 16.21875 Z M 16.078125 13.382812 C 15.679688 13.382812 15.339844 13.722656 15.339844 14.0625 L 15.339844 14.855469 C 15.339844 15.253906 15.679688 15.535156 16.078125 15.535156 C 16.417969 15.535156 16.699219 15.253906 16.699219 14.855469 L 16.699219 14.0625 C 16.699219 13.722656 16.417969 13.382812 16.078125 13.382812 Z M 16.078125 13.382812 "/><path style=" stroke:none;fill-rule:evenodd;fill:#ffffff;fill-opacity:1;" d="M 18.230469 16.21875 C 18.0625 16.21875 17.890625 16.046875 17.890625 15.878906 L 17.890625 13.042969 C 17.890625 12.871094 18.0625 12.703125 18.230469 12.703125 C 18.457031 12.703125 18.574219 12.871094 18.574219 13.042969 L 18.574219 15.878906 C 18.628906 16.046875 18.457031 16.21875 18.230469 16.21875 Z M 18.230469 16.21875 "/><path style=" stroke:none;fill-rule:evenodd;fill:#ffffff;fill-opacity:1;" d="M 20.160156 16.21875 C 19.988281 16.21875 19.875 16.046875 19.875 15.878906 L 19.875 13.042969 C 19.875 12.871094 19.988281 12.703125 20.160156 12.703125 C 20.386719 12.703125 20.5 12.871094 20.5 13.042969 L 20.5 15.878906 C 20.5 16.046875 20.386719 16.21875 20.160156 16.21875 Z M 20.160156 16.21875 "/><path style=" stroke:none;fill-rule:evenodd;fill:#ffffff;fill-opacity:1;" d="M 20.160156 14.800781 L 18.289062 14.800781 C 18.0625 14.800781 17.949219 14.628906 17.949219 14.460938 C 17.949219 14.289062 18.0625 14.121094 18.289062 14.121094 L 20.160156 14.121094 C 20.386719 14.121094 20.5 14.289062 20.5 14.460938 C 20.5 14.628906 20.386719 14.800781 20.160156 14.800781 Z M 20.160156 14.800781 "/><path style=" stroke:none;fill-rule:evenodd;fill:#ffffff;fill-opacity:1;" d="M 13.867188 16.21875 C 13.753906 16.21875 13.640625 16.160156 13.582031 16.046875 C 13.183594 15.535156 12.957031 14.914062 12.957031 14.289062 C 12.957031 13.664062 13.183594 13.042969 13.582031 12.53125 C 13.695312 12.363281 13.921875 12.363281 14.035156 12.476562 C 14.207031 12.589844 14.207031 12.757812 14.09375 12.929688 C 13.808594 13.324219 13.640625 13.835938 13.640625 14.289062 C 13.640625 14.742188 13.808594 15.253906 14.09375 15.648438 C 14.207031 15.820312 14.207031 16.046875 14.035156 16.160156 C 13.980469 16.160156 13.921875 16.21875 13.867188 16.21875 Z M 13.867188 16.21875 "/><path style=" stroke:none;fill-rule:evenodd;fill:#ffffff;fill-opacity:1;" d="M 21.351562 16.21875 C 21.292969 16.21875 21.238281 16.160156 21.179688 16.160156 C 21.011719 16.046875 21.011719 15.820312 21.125 15.648438 C 21.40625 15.253906 21.578125 14.742188 21.578125 14.289062 C 21.578125 13.835938 21.40625 13.324219 21.125 12.929688 C 21.011719 12.757812 21.011719 12.589844 21.179688 12.476562 C 21.292969 12.363281 21.519531 12.363281 21.632812 12.53125 C 22.03125 13.042969 22.257812 13.664062 22.257812 14.289062 C 22.257812 14.914062 22.03125 15.535156 21.632812 16.046875 C 21.578125 16.160156 21.464844 16.21875 21.351562 16.21875 Z M 21.351562 16.21875 "/><path style=" stroke:none;fill-rule:evenodd;fill:#ffffff;fill-opacity:1;" d="M 11.257812 16.21875 L 10.972656 16.21875 C 10.632812 16.21875 10.238281 15.992188 10.125 15.59375 C 10.011719 15.480469 10.125 15.253906 10.238281 15.195312 C 10.40625 15.082031 10.632812 15.195312 10.691406 15.308594 C 10.746094 15.421875 10.859375 15.535156 10.972656 15.535156 L 11.257812 15.535156 C 11.542969 15.535156 11.769531 15.308594 11.769531 15.027344 L 11.769531 12.816406 C 11.769531 12.644531 11.882812 12.476562 12.109375 12.476562 C 12.277344 12.476562 12.390625 12.644531 12.390625 12.816406 L 12.390625 15.027344 C 12.503906 15.648438 11.9375 16.21875 11.257812 16.21875 Z M 11.257812 16.21875 "/><path style=" stroke:none;fill-rule:evenodd;fill:#ffffff;fill-opacity:1;" d="M 11.257812 14.914062 C 10.578125 14.914062 10.066406 14.402344 10.066406 13.722656 C 10.066406 13.042969 10.578125 12.476562 11.257812 12.476562 C 11.9375 12.476562 12.503906 13.042969 12.503906 13.722656 C 12.503906 14.402344 11.9375 14.914062 11.257812 14.914062 Z M 11.257812 13.15625 C 10.972656 13.15625 10.746094 13.382812 10.746094 13.722656 C 10.746094 14.003906 10.972656 14.234375 11.257812 14.234375 C 11.542969 14.234375 11.824219 14.003906 11.824219 13.722656 C 11.824219 13.382812 11.542969 13.15625 11.257812 13.15625 Z M 11.257812 13.15625 "/><path style=" stroke:none;fill-rule:evenodd;fill:#ffffff;fill-opacity:1;" d="M 9.214844 16.21875 C 8.988281 16.21875 8.875 16.046875 8.875 15.878906 L 8.875 14.402344 L 8.140625 16.046875 C 8.140625 16.160156 7.96875 16.21875 7.855469 16.21875 C 7.683594 16.21875 7.570312 16.160156 7.570312 16.046875 L 6.835938 14.402344 L 6.835938 15.878906 C 6.835938 16.046875 6.722656 16.21875 6.496094 16.21875 C 6.324219 16.21875 6.152344 16.046875 6.152344 15.878906 L 6.152344 12.816406 C 6.152344 12.644531 6.269531 12.476562 6.4375 12.476562 C 6.609375 12.476562 6.722656 12.53125 6.835938 12.644531 L 7.855469 15.027344 L 8.875 12.644531 C 8.988281 12.53125 9.101562 12.417969 9.273438 12.476562 C 9.441406 12.476562 9.554688 12.644531 9.554688 12.816406 L 9.554688 15.878906 C 9.554688 16.046875 9.386719 16.21875 9.214844 16.21875 Z M 9.214844 16.21875 "/><path style=" stroke:none;fill-rule:evenodd;fill:#ffffff;fill-opacity:1;" d="M 23.503906 18.03125 L 22.203125 18.03125 C 22.089844 18.03125 21.972656 17.917969 21.859375 17.804688 C 21.859375 17.691406 21.859375 17.519531 21.972656 17.464844 L 22.996094 16.613281 C 23.050781 16.558594 23.050781 16.445312 23.050781 16.386719 C 23.050781 16.21875 22.9375 16.046875 22.710938 16.046875 C 22.597656 16.046875 22.484375 16.160156 22.484375 16.21875 C 22.371094 16.386719 22.144531 16.445312 22.03125 16.332031 C 21.859375 16.273438 21.804688 16.046875 21.859375 15.878906 C 22.089844 15.59375 22.371094 15.367188 22.710938 15.367188 C 23.277344 15.367188 23.730469 15.820312 23.730469 16.332031 C 23.730469 16.613281 23.617188 16.898438 23.390625 17.066406 L 23.164062 17.351562 L 23.5625 17.351562 C 23.730469 17.351562 23.847656 17.464844 23.847656 17.691406 C 23.847656 17.863281 23.730469 18.03125 23.503906 18.03125 Z M 23.503906 18.03125 "/></g></svg>