<svg xmlns="http://www.w3.org/2000/svg" xmlns:xlink="http://www.w3.org/1999/xlink" width="40" zoomAndPan="magnify" viewBox="0 0 30 30.000001" height="40" preserveAspectRatio="xMidYMid meet" version="1.2"><defs><clipPath id="226bb2c8c4"><path d="M 2 0 L 28 0 L 28 29.03125 L 2 29.03125 Z M 2 0 "/></clipPath></defs><g id="f5bd4382a8"><g clip-rule="nonzero" clip-path="url(#226bb2c8c4)"><path style=" stroke:none;fill-rule:evenodd;fill:#32447e;fill-opacity:1;" d="M 11.3125 26.933594 L 5.019531 23.25 L 2.410156 21.773438 L 2.410156 7.257812 L 5.132812 5.671875 L 11.484375 2.042969 L 15 0 L 18.515625 2.042969 L 24.867188 5.671875 L 27.589844 7.257812 L 27.589844 21.773438 L 24.980469 23.25 L 18.6875 26.933594 L 15 29.03125 Z M 11.3125 26.933594 "/></g><path style=" stroke:none;fill-rule:evenodd;fill:#2d3d71;fill-opacity:1;" d="M 3.828125 7.769531 L 14.714844 1.472656 C 14.886719 1.359375 15.113281 1.359375 15.285156 1.472656 L 26.171875 7.769531 C 26.339844 7.882812 26.453125 8.050781 26.453125 8.277344 L 26.453125 20.753906 C 26.453125 20.980469 26.339844 21.152344 26.171875 21.265625 L 15.285156 27.558594 C 15.113281 27.671875 14.886719 27.671875 14.714844 27.558594 L 3.828125 21.265625 C 3.660156 21.152344 3.546875 20.980469 3.546875 20.753906 L 3.546875 8.277344 C 3.546875 8.050781 3.660156 7.882812 3.828125 7.769531 Z M 3.828125 7.769531 "/><path style=" stroke:none;fill-rule:evenodd;fill:#374c81;fill-opacity:1;" d="M 12.335938 3.515625 L 6.039062 7.203125 L 4.167969 8.277344 L 4.167969 20.753906 L 5.871094 21.773438 L 12.222656 25.402344 L 15 27.046875 L 17.777344 25.402344 L 24.128906 21.773438 L 25.832031 20.753906 L 25.832031 8.277344 L 23.960938 7.203125 L 17.664062 3.515625 L 15 1.984375 Z M 12.335938 3.515625 "/><path style=" stroke:none;fill-rule:evenodd;fill:#4b5e8e;fill-opacity:1;" d="M 4.167969 20.808594 L 5.871094 21.773438 L 9.785156 24.042969 L 20.671875 5.273438 L 17.664062 3.515625 L 15.058594 1.984375 Z M 4.167969 20.808594 "/><path style=" stroke:none;fill-rule:evenodd;fill:#4b5e8e;fill-opacity:1;" d="M 12.164062 25.402344 L 12.222656 25.402344 L 14.941406 27.046875 L 25.832031 8.222656 L 23.960938 7.203125 L 22.996094 6.632812 Z M 12.164062 25.402344 "/><path style=" stroke:none;fill-rule:evenodd;fill:#e3e3e3;fill-opacity:1;" d="M 2.410156 11.113281 L 4.167969 11.113281 C 4.625 11.113281 5.019531 11.511719 5.019531 11.964844 L 5.019531 17.578125 C 5.019531 18.03125 4.625 18.429688 4.167969 18.429688 L 2.410156 18.429688 C 1.957031 18.429688 1.5625 18.03125 1.5625 17.578125 L 1.5625 11.964844 C 1.5625 11.511719 1.957031 11.113281 2.410156 11.113281 Z M 2.410156 11.113281 "/><path style=" stroke:none;fill-rule:evenodd;fill:#e3e3e3;fill-opacity:1;" d="M 25.832031 11.113281 L 27.589844 11.113281 C 28.042969 11.113281 28.4375 11.511719 28.4375 11.964844 L 28.4375 17.578125 C 28.4375 18.03125 28.042969 18.429688 27.589844 18.429688 L 25.832031 18.429688 C 25.375 18.429688 24.980469 18.03125 24.980469 17.578125 L 24.980469 11.964844 C 24.980469 11.511719 25.375 11.113281 25.832031 11.113281 Z M 25.832031 11.113281 "/><path style=" stroke:none;fill-rule:evenodd;fill:#e3e3e3;fill-opacity:1;" d="M 17.722656 3.457031 L 18.574219 1.929688 C 18.800781 1.53125 19.367188 1.417969 19.761719 1.644531 L 24.582031 4.421875 C 24.980469 4.648438 25.148438 5.160156 24.921875 5.613281 L 24.074219 7.089844 C 23.789062 7.484375 23.277344 7.65625 22.882812 7.429688 L 18.0625 4.59375 C 17.609375 4.367188 17.496094 3.855469 17.722656 3.457031 Z M 17.722656 3.457031 "/><path style=" stroke:none;fill-rule:evenodd;fill:#e3e3e3;fill-opacity:1;" d="M 12.277344 3.457031 L 11.425781 1.929688 C 11.199219 1.53125 10.632812 1.417969 10.238281 1.644531 L 5.417969 4.421875 C 5.019531 4.648438 4.851562 5.160156 5.078125 5.613281 L 5.925781 7.089844 C 6.210938 7.484375 6.722656 7.65625 7.117188 7.429688 L 11.9375 4.59375 C 12.390625 4.367188 12.503906 3.855469 12.277344 3.457031 Z M 12.277344 3.457031 "/><path style=" stroke:none;fill-rule:evenodd;fill:#e3e3e3;fill-opacity:1;" d="M 17.722656 25.289062 L 18.574219 26.765625 C 18.800781 27.160156 19.367188 27.332031 19.761719 27.105469 L 24.582031 24.324219 C 24.980469 24.042969 25.148438 23.53125 24.921875 23.136719 L 24.074219 21.660156 C 23.789062 21.207031 23.277344 21.09375 22.882812 21.320312 L 18.0625 24.097656 C 17.609375 24.324219 17.496094 24.894531 17.722656 25.289062 Z M 17.722656 25.289062 "/><path style=" stroke:none;fill-rule:evenodd;fill:#e3e3e3;fill-opacity:1;" d="M 12.277344 25.289062 L 11.425781 26.765625 C 11.199219 27.160156 10.632812 27.332031 10.238281 27.105469 L 5.417969 24.324219 C 5.019531 24.042969 4.851562 23.53125 5.078125 23.136719 L 5.925781 21.660156 C 6.210938 21.207031 6.722656 21.09375 7.117188 21.320312 L 11.9375 24.097656 C 12.390625 24.324219 12.503906 24.894531 12.277344 25.289062 Z M 12.277344 25.289062 "/><path style=" stroke:none;fill-rule:evenodd;fill:#cccccc;fill-opacity:1;" d="M 2.921875 13.210938 C 2.921875 13.042969 3.09375 12.871094 3.261719 12.871094 C 3.488281 12.871094 3.660156 13.042969 3.660156 13.210938 L 3.660156 16.332031 C 3.660156 16.558594 3.488281 16.671875 3.261719 16.671875 C 3.09375 16.671875 2.921875 16.558594 2.921875 16.332031 Z M 2.921875 13.210938 "/><path style=" stroke:none;fill-rule:evenodd;fill:#cccccc;fill-opacity:1;" d="M 26.339844 13.210938 C 26.339844 13.042969 26.511719 12.871094 26.738281 12.871094 C 26.90625 12.871094 27.078125 13.042969 27.078125 13.210938 L 27.078125 16.332031 C 27.078125 16.558594 26.90625 16.671875 26.738281 16.671875 C 26.511719 16.671875 26.339844 16.558594 26.339844 16.332031 Z M 26.339844 13.210938 "/><path style=" stroke:none;fill-rule:evenodd;fill:#e9e9e9;fill-opacity:1;" d="M 5.53125 6.351562 L 11.824219 2.664062 L 11.484375 2.042969 L 11.425781 1.929688 C 11.199219 1.53125 10.632812 1.417969 10.238281 1.644531 L 5.417969 4.421875 C 5.019531 4.648438 4.851562 5.160156 5.078125 5.613281 L 5.132812 5.671875 Z M 5.53125 6.351562 "/><path style=" stroke:none;fill-rule:evenodd;fill:#e9e9e9;fill-opacity:1;" d="M 24.46875 6.351562 L 18.175781 2.664062 L 18.515625 2.042969 L 18.574219 1.929688 C 18.800781 1.53125 19.367188 1.417969 19.761719 1.644531 L 24.582031 4.421875 C 24.980469 4.648438 25.148438 5.160156 24.921875 5.613281 L 24.867188 5.671875 Z M 24.46875 6.351562 "/><path style=" stroke:none;fill-rule:evenodd;fill:#e9e9e9;fill-opacity:1;" d="M 5.53125 22.398438 L 11.824219 26.027344 L 11.484375 26.707031 L 11.425781 26.765625 C 11.199219 27.160156 10.632812 27.332031 10.238281 27.105469 L 5.417969 24.324219 C 5.019531 24.042969 4.851562 23.53125 5.078125 23.136719 L 5.132812 23.023438 Z M 5.53125 22.398438 "/><path style=" stroke:none;fill-rule:evenodd;fill:#e9e9e9;fill-opacity:1;" d="M 24.46875 22.398438 L 18.175781 26.027344 L 18.515625 26.707031 L 18.574219 26.765625 C 18.800781 27.160156 19.367188 27.332031 19.761719 27.105469 L 24.582031 24.324219 C 24.980469 24.042969 25.148438 23.53125 24.921875 23.136719 L 24.867188 23.023438 Z M 24.46875 22.398438 "/><path style=" stroke:none;fill-rule:evenodd;fill:#ffffff;fill-opacity:1;" d="M 8.707031 16.953125 C 8.535156 16.953125 8.421875 16.785156 8.421875 16.613281 L 8.421875 12.417969 C 8.421875 12.246094 8.535156 12.078125 8.707031 12.078125 C 8.933594 12.078125 9.046875 12.246094 9.046875 12.417969 L 9.046875 16.613281 C 9.101562 16.785156 8.933594 16.953125 8.707031 16.953125 Z M 8.707031 16.953125 "/><path style=" stroke:none;fill-rule:evenodd;fill:#ffffff;fill-opacity:1;" d="M 8.707031 14.855469 C 8.648438 14.855469 8.535156 14.800781 8.480469 14.742188 C 8.367188 14.574219 8.367188 14.347656 8.535156 14.234375 L 10.972656 12.191406 C 11.085938 12.078125 11.3125 12.078125 11.425781 12.191406 C 11.542969 12.363281 11.542969 12.589844 11.371094 12.703125 L 8.933594 14.742188 C 8.875 14.800781 8.820312 14.855469 8.707031 14.855469 Z M 8.707031 14.855469 "/><path style=" stroke:none;fill-rule:evenodd;fill:#ffffff;fill-opacity:1;" d="M 11.199219 16.953125 C 11.085938 16.953125 10.972656 16.898438 10.917969 16.785156 L 9.101562 14.175781 C 8.988281 14.003906 9.046875 13.777344 9.214844 13.664062 C 9.386719 13.550781 9.554688 13.609375 9.667969 13.777344 L 11.484375 16.445312 C 11.597656 16.613281 11.542969 16.785156 11.371094 16.898438 C 11.3125 16.898438 11.257812 16.953125 11.199219 16.953125 Z M 11.199219 16.953125 "/><path style=" stroke:none;fill-rule:evenodd;fill:#ffffff;fill-opacity:1;" d="M 14.828125 16.953125 C 13.808594 16.953125 12.957031 16.105469 12.957031 15.082031 L 12.957031 13.890625 C 12.957031 12.929688 13.808594 12.078125 14.828125 12.078125 C 15.792969 12.078125 16.644531 12.929688 16.644531 13.890625 L 16.644531 15.082031 C 16.644531 16.105469 15.792969 16.953125 14.828125 16.953125 Z M 14.828125 12.757812 C 14.207031 12.757812 13.640625 13.269531 13.640625 13.949219 L 13.640625 15.140625 C 13.640625 15.761719 14.207031 16.273438 14.828125 16.273438 C 15.453125 16.273438 15.964844 15.761719 15.964844 15.140625 L 15.964844 13.949219 C 15.964844 13.324219 15.453125 12.757812 14.828125 12.757812 Z M 14.828125 12.757812 "/><path style=" stroke:none;fill-rule:evenodd;fill:#ffffff;fill-opacity:1;" d="M 18.402344 16.953125 C 18.230469 16.953125 18.0625 16.785156 18.0625 16.613281 L 18.0625 12.417969 C 18.0625 12.246094 18.230469 12.078125 18.402344 12.078125 C 18.628906 12.078125 18.742188 12.246094 18.742188 12.417969 L 18.742188 16.613281 C 18.742188 16.785156 18.628906 16.953125 18.402344 16.953125 Z M 18.402344 16.953125 "/><path style=" stroke:none;fill-rule:evenodd;fill:#ffffff;fill-opacity:1;" d="M 21.292969 16.953125 C 21.066406 16.953125 20.953125 16.785156 20.953125 16.613281 L 20.953125 12.417969 C 20.953125 12.246094 21.066406 12.078125 21.292969 12.078125 C 21.464844 12.078125 21.578125 12.246094 21.578125 12.417969 L 21.578125 16.613281 C 21.578125 16.785156 21.464844 16.953125 21.292969 16.953125 Z M 21.292969 16.953125 "/><path style=" stroke:none;fill-rule:evenodd;fill:#ffffff;fill-opacity:1;" d="M 21.292969 14.855469 L 18.457031 14.855469 C 18.230469 14.855469 18.117188 14.6875 18.117188 14.515625 C 18.117188 14.347656 18.230469 14.175781 18.457031 14.175781 L 21.292969 14.175781 C 21.464844 14.175781 21.578125 14.347656 21.578125 14.515625 C 21.578125 14.6875 21.464844 14.855469 21.292969 14.855469 Z M 21.292969 14.855469 "/></g></svg>